<svg width="68" height="74" viewBox="0 0 68 74" fill="none" xmlns="http://www.w3.org/2000/svg">
<g filter="url(#filter0_d)">
<path d="M4.94855 32.51C4.94855 28.67 5.66855 24.86 7.10855 21.08C8.54855 17.24 10.6486 13.82 13.4086 10.82C16.1686 7.82 19.5286 5.39 23.4886 3.53C27.4486 1.67 31.9486 0.739996 36.9886 0.739996C42.9886 0.739996 48.1786 2.03 52.5586 4.61C56.9986 7.19 60.2986 10.55 62.4586 14.69L51.1186 22.61C50.3986 20.93 49.4686 19.55 48.3286 18.47C47.2486 17.33 46.0486 16.43 44.7286 15.77C43.4086 15.05 42.0586 14.57 40.6786 14.33C39.2986 14.03 37.9486 13.88 36.6286 13.88C33.8086 13.88 31.3486 14.45 29.2486 15.59C27.1486 16.73 25.4086 18.2 24.0286 20C22.6486 21.8 21.6286 23.84 20.9686 26.12C20.3086 28.4 19.9786 30.71 19.9786 33.05C19.9786 35.57 20.3686 38 21.1486 40.34C21.9286 42.68 23.0386 44.75 24.4786 46.55C25.9786 48.35 27.7486 49.79 29.7886 50.87C31.8886 51.89 34.2286 52.4 36.8086 52.4C38.1286 52.4 39.4786 52.25 40.8586 51.95C42.2986 51.59 43.6486 51.08 44.9086 50.42C46.2286 49.7 47.4286 48.8 48.5086 47.72C49.5886 46.58 50.4586 45.2 51.1186 43.58L63.1786 50.69C62.2186 53.03 60.7786 55.13 58.8586 56.99C56.9986 58.85 54.8386 60.41 52.3786 61.67C49.9186 62.93 47.3086 63.89 44.5486 64.55C41.7886 65.21 39.0886 65.54 36.4486 65.54C31.8286 65.54 27.5686 64.61 23.6686 62.75C19.8286 60.83 16.4986 58.31 13.6786 55.19C10.9186 52.07 8.75855 48.53 7.19855 44.57C5.69855 40.61 4.94855 36.59 4.94855 32.51Z" fill="#C60606"/>
</g>
<defs>
<filter id="filter0_d" x="0.948547" y="0.73999" width="66.23" height="72.8" filterUnits="userSpaceOnUse" color-interpolation-filters="sRGB">
<feFlood flood-opacity="0" result="BackgroundImageFix"/>
<feColorMatrix in="SourceAlpha" type="matrix" values="0 0 0 0 0 0 0 0 0 0 0 0 0 0 0 0 0 0 127 0"/>
<feOffset dy="4"/>
<feGaussianBlur stdDeviation="2"/>
<feColorMatrix type="matrix" values="0 0 0 0 0 0 0 0 0 0 0 0 0 0 0 0 0 0 0.48 0"/>
<feBlend mode="normal" in2="BackgroundImageFix" result="effect1_dropShadow"/>
<feBlend mode="normal" in="SourceGraphic" in2="effect1_dropShadow" result="shape"/>
</filter>
</defs>
</svg>
