<svg width="79" height="77" viewBox="0 0 79 77" fill="none" xmlns="http://www.w3.org/2000/svg">
<g filter="url(#filter0_d)">
<path d="M8.26041 41.1839H70.7402C73.0928 41.1839 75 39.3041 75 36.9835C75 34.6635 73.0933 32.7831 70.7402 32.7831H8.26041C5.90725 32.7837 4 34.6641 4 36.9835C4 39.3036 5.90725 41.1839 8.26041 41.1839Z" fill="#00909E"/>
<path d="M39.3831 22.2841C45.1905 22.2841 49.9144 17.6269 49.9144 11.9007C49.9144 6.17504 45.1905 1.51718 39.3831 1.51718C33.5763 1.51718 28.8507 6.17504 28.8507 11.9007C28.8501 17.6263 33.5751 22.2841 39.3831 22.2841Z" fill="#00909E"/>
<path d="M49.9138 58.0999C49.9138 52.3743 45.19 47.717 39.382 47.717C33.5757 47.717 28.8501 52.3743 28.8501 58.0999C28.8501 63.8244 33.574 68.4828 39.382 68.4828C45.1894 68.4828 49.9138 63.8267 49.9138 58.0999Z" fill="#00909E"/>
</g>
<defs>
<filter id="filter0_d" x="0" y="0" width="79" height="78" filterUnits="userSpaceOnUse" color-interpolation-filters="sRGB">
<feFlood flood-opacity="0" result="BackgroundImageFix"/>
<feColorMatrix in="SourceAlpha" type="matrix" values="0 0 0 0 0 0 0 0 0 0 0 0 0 0 0 0 0 0 127 0"/>
<feOffset dy="4"/>
<feGaussianBlur stdDeviation="2"/>
<feColorMatrix type="matrix" values="0 0 0 0 0 0 0 0 0 0 0 0 0 0 0 0 0 0 0.48 0"/>
<feBlend mode="normal" in2="BackgroundImageFix" result="effect1_dropShadow"/>
<feBlend mode="normal" in="SourceGraphic" in2="effect1_dropShadow" result="shape"/>
</filter>
</defs>
</svg>
