<svg width="72" height="71" viewBox="0 0 72 71" fill="none" xmlns="http://www.w3.org/2000/svg">
<g filter="url(#filter0_d)">
<path d="M48.3799 61.043H37.086C36.2655 61.043 35.6525 60.8454 35.2043 60.4944L35.2036 60.4938C34.6949 60.0969 34.2967 59.6318 34.0031 59.0928L34.0032 59.0927L33.9962 59.0806L26.4212 46.0586L25.837 45.0543L25.5093 46.169C25.379 46.6122 25.2237 47.0247 25.0438 47.4109C24.8604 47.8045 24.6644 48.1694 24.4573 48.5058L24.4572 48.5058L24.4522 48.5142L18.2384 59.0619C17.8804 59.5696 17.4598 60.0417 16.9737 60.4763C16.5624 60.844 16.0204 61.044 15.301 61.044H4.9208L18.6694 39.8693L18.8485 39.5934L18.666 39.3197L5.50818 19.58H16.776C17.6537 19.58 18.2114 19.6974 18.5201 19.8672C18.8443 20.0454 19.1632 20.3604 19.4594 20.8535L19.4598 20.8541L27.0347 33.4241L27.5935 34.3513L27.9371 33.3247C28.0929 32.8594 28.2879 32.3969 28.5224 31.9412C28.7631 31.4755 29.0292 30.9999 29.3229 30.5183L29.3266 30.5123L29.3301 30.5061L34.7301 21.0576C35.0864 20.5002 35.4395 20.1291 35.7807 19.9094L35.7811 19.9091C36.1056 19.6997 36.5317 19.579 37.087 19.579H47.7668L34.6257 38.7392L34.4393 39.0109L34.6155 39.2894L48.3799 61.043Z" fill="#00909E" stroke="#1F1F1F"/>
<path d="M55.0583 52.7681L55.0584 52.768C55.3752 52.0377 55.8058 51.4108 56.3546 50.8765L56.3568 50.8743C56.9028 50.3394 57.5527 49.908 58.3161 49.5866C59.0562 49.275 59.8768 49.113 60.795 49.113C61.6787 49.113 62.4897 49.2737 63.2316 49.5865L63.2319 49.5866C63.9966 49.9086 64.6568 50.3419 65.2221 50.8819C65.78 51.4169 66.2158 52.0423 66.5315 52.7677C66.8409 53.4828 67 54.2596 67 55.115C67 55.9677 66.8408 56.7551 66.5286 57.4846C66.212 58.2246 65.7761 58.8557 65.2215 59.3866L65.2215 59.3866C64.6597 59.9244 64.0038 60.3482 63.2436 60.6561L63.2423 60.6567C62.4965 60.9599 61.6813 61.117 60.794 61.117C59.8723 61.117 59.0474 60.9587 58.3033 60.6565L58.3028 60.6563C57.5446 60.3489 56.8985 59.9271 56.3564 59.3952L56.3536 59.3925C55.808 58.8613 55.3783 58.2298 55.0594 57.4846L55.0592 57.4842C54.747 56.7555 54.587 55.9681 54.587 55.115C54.587 54.2609 54.7476 53.4841 55.0583 52.7681ZM56.4217 32.6575L56.4216 32.6567C56.1247 30.2273 55.98 27.7789 55.98 25.304V2.883H65.853V25.304C65.853 27.7776 65.7073 30.2263 65.4123 32.6575C65.1449 34.8448 64.8056 37.0696 64.3878 39.332H57.4452C57.0294 37.0682 56.6871 34.8434 56.4217 32.6575Z" fill="#00909E" stroke="#1F1F1F" stroke-width="2"/>
</g>
<defs>
<filter id="filter0_d" x="0" y="0" width="72" height="72" filterUnits="userSpaceOnUse" color-interpolation-filters="sRGB">
<feFlood flood-opacity="0" result="BackgroundImageFix"/>
<feColorMatrix in="SourceAlpha" type="matrix" values="0 0 0 0 0 0 0 0 0 0 0 0 0 0 0 0 0 0 127 0"/>
<feOffset dy="4"/>
<feGaussianBlur stdDeviation="2"/>
<feColorMatrix type="matrix" values="0 0 0 0 0 0 0 0 0 0 0 0 0 0 0 0 0 0 0.48 0"/>
<feBlend mode="normal" in2="BackgroundImageFix" result="effect1_dropShadow"/>
<feBlend mode="normal" in="SourceGraphic" in2="effect1_dropShadow" result="shape"/>
</filter>
</defs>
</svg>
