<?xml version="1.0" encoding="UTF-8" standalone="no"?>
<!-- Generator: Adobe Illustrator 19.0.0, SVG Export Plug-In . SVG Version: 6.00 Build 0)  -->

<svg
   xmlns:dc="http://purl.org/dc/elements/1.1/"
   xmlns:cc="http://creativecommons.org/ns#"
   xmlns:rdf="http://www.w3.org/1999/02/22-rdf-syntax-ns#"
   xmlns:svg="http://www.w3.org/2000/svg"
   xmlns="http://www.w3.org/2000/svg"
   xmlns:sodipodi="http://sodipodi.sourceforge.net/DTD/sodipodi-0.dtd"
   xmlns:inkscape="http://www.inkscape.org/namespaces/inkscape"
   version="1.1"
   id="Capa_1"
   x="0px"
   y="0px"
   viewBox="0 0 512 512.001"
   style="enable-background:new 0 0 512 512.001;"
   xml:space="preserve"
   sodipodi:docname="multiply.svg"
   inkscape:version="0.92.3 (2405546, 2018-03-11)"><metadata
   id="metadata43"><rdf:RDF><cc:Work
       rdf:about=""><dc:format>image/svg+xml</dc:format><dc:type
         rdf:resource="http://purl.org/dc/dcmitype/StillImage" /><dc:title></dc:title></cc:Work></rdf:RDF></metadata><defs
   id="defs41" /><sodipodi:namedview
   pagecolor="#ffffff"
   bordercolor="#666666"
   borderopacity="1"
   objecttolerance="10"
   gridtolerance="10"
   guidetolerance="10"
   inkscape:pageopacity="0"
   inkscape:pageshadow="2"
   inkscape:window-width="1366"
   inkscape:window-height="703"
   id="namedview39"
   showgrid="false"
   inkscape:zoom="0.46093662"
   inkscape:cx="28.202955"
   inkscape:cy="256.00049"
   inkscape:window-x="0"
   inkscape:window-y="0"
   inkscape:window-maximized="1"
   inkscape:current-layer="g4" />
<g
   id="g6">
	<g
   id="g4">
		<path
   d="M284.284,256L506.142,34.142c7.811-7.81,7.811-20.474,0-28.284c-7.811-7.811-20.474-7.811-28.284,0L256,227.716    L34.142,5.858c-7.811-7.811-20.474-7.811-28.284,0c-7.811,7.81-7.811,20.474,0,28.284L227.716,256L5.858,477.858    c-7.811,7.811-7.811,20.474,0,28.284c7.81,7.81,20.473,7.811,28.284,0L256,284.284l221.858,221.858    c7.81,7.81,20.473,7.811,28.284,0c7.811-7.811,7.811-20.474,0-28.284L284.284,256z"
   id="path2"
   style="fill-opacity:1;fill:#00909e" />
	</g>
</g>
<g
   id="g8">
</g>
<g
   id="g10">
</g>
<g
   id="g12">
</g>
<g
   id="g14">
</g>
<g
   id="g16">
</g>
<g
   id="g18">
</g>
<g
   id="g20">
</g>
<g
   id="g22">
</g>
<g
   id="g24">
</g>
<g
   id="g26">
</g>
<g
   id="g28">
</g>
<g
   id="g30">
</g>
<g
   id="g32">
</g>
<g
   id="g34">
</g>
<g
   id="g36">
</g>
</svg>