<svg width="79" height="88" viewBox="0 0 79 88" fill="none" xmlns="http://www.w3.org/2000/svg">
<g filter="url(#filter0_d)">
<g clip-path="url(#clip0)">
<path d="M7.61051 45.8656H10.5477L25.1138 71.5566C25.7974 72.7621 26.9064 73.4576 28.0678 73.4576C28.2965 73.4576 28.5287 73.4301 28.7584 73.3737C30.1568 73.0352 31.2638 71.7108 31.5849 69.9898L40.2637 23.4924H71.3895C73.3832 23.4924 75.0005 21.4897 75.0005 19.0174C75.0005 16.5463 73.3842 14.5424 71.3895 14.5424H37.3937C35.7136 14.5424 34.2549 15.9806 33.876 18.009L26.3729 58.2099L15.3774 38.8172C14.7021 37.6264 13.6 36.9162 12.4239 36.9162H7.61051C5.61631 36.9162 4 38.9189 4 41.3912C4.00049 43.8622 5.6168 45.8656 7.61051 45.8656Z" fill="#00909E"/>
<path d="M44.3717 64.8866C44.3717 67.084 45.8171 68.7004 47.6808 68.7004C48.94 68.7004 49.9191 67.7183 50.7579 66.4466L55.793 58.2417L60.8277 66.4466C61.7603 67.8916 62.7384 68.7004 64.1364 68.7004C65.9098 68.7004 67.4001 67.1403 67.4001 64.6564C67.4001 63.501 67.0267 62.4608 66.2338 61.3037L59.9869 52.4063L66.0486 43.6222C66.6087 42.7553 67.0267 41.8308 67.0267 40.6166C67.0267 38.4193 65.5813 36.8017 63.7165 36.8017C62.4573 36.8017 61.4792 37.7843 60.6395 39.0572L55.9303 46.6829L51.3156 39.0572C50.3819 37.6117 49.4043 36.8017 48.0064 36.8017C46.234 36.8017 44.7431 38.3635 44.7431 40.8481C44.7431 42.0022 45.1166 43.0436 45.9079 44.1978L51.7354 52.5196L45.3483 61.8804C44.7446 62.748 44.3717 63.6725 44.3717 64.8866Z" fill="#00909E"/>
</g>
</g>
<defs>
<filter id="filter0_d" x="0" y="0" width="79" height="96" filterUnits="userSpaceOnUse" color-interpolation-filters="sRGB">
<feFlood flood-opacity="0" result="BackgroundImageFix"/>
<feColorMatrix in="SourceAlpha" type="matrix" values="0 0 0 0 0 0 0 0 0 0 0 0 0 0 0 0 0 0 127 0"/>
<feOffset dy="4"/>
<feGaussianBlur stdDeviation="2"/>
<feColorMatrix type="matrix" values="0 0 0 0 0 0 0 0 0 0 0 0 0 0 0 0 0 0 0.48 0"/>
<feBlend mode="normal" in2="BackgroundImageFix" result="effect1_dropShadow"/>
<feBlend mode="normal" in="SourceGraphic" in2="effect1_dropShadow" result="shape"/>
</filter>
<clipPath id="clip0">
<rect x="4" width="71" height="88" fill="white"/>
</clipPath>
</defs>
</svg>
