<svg width="74" height="47" viewBox="0 0 74 47" fill="none" xmlns="http://www.w3.org/2000/svg">
<g filter="url(#filter0_d)">
<path d="M4 33.4381C4 34.0189 4.22044 34.5326 4.66132 34.9794L7.96794 38.3299C8.40882 38.7766 8.91583 39 9.48898 39C10.0621 39 10.5691 38.7766 11.01 38.3299L37 11.9948L62.99 38.3299C63.4309 38.7766 63.9379 39 64.511 39C65.0842 39 65.5912 38.7766 66.0321 38.3299L69.3387 34.9794C69.7796 34.5326 70 34.0189 70 33.4381C70 32.8574 69.7796 32.3436 69.3387 31.8969L38.521 0.670103C38.0802 0.223368 37.5731 0 37 0C36.4269 0 35.9198 0.223368 35.479 0.670103L4.66132 31.8969C4.22044 32.3436 4 32.8574 4 33.4381Z" fill="#00909E"/>
</g>
<defs>
<filter id="filter0_d" x="0" y="0" width="74" height="47" filterUnits="userSpaceOnUse" color-interpolation-filters="sRGB">
<feFlood flood-opacity="0" result="BackgroundImageFix"/>
<feColorMatrix in="SourceAlpha" type="matrix" values="0 0 0 0 0 0 0 0 0 0 0 0 0 0 0 0 0 0 127 0"/>
<feOffset dy="4"/>
<feGaussianBlur stdDeviation="2"/>
<feColorMatrix type="matrix" values="0 0 0 0 0 0 0 0 0 0 0 0 0 0 0 0 0 0 0.48 0"/>
<feBlend mode="normal" in2="BackgroundImageFix" result="effect1_dropShadow"/>
<feBlend mode="normal" in="SourceGraphic" in2="effect1_dropShadow" result="shape"/>
</filter>
</defs>
</svg>
